<svg xmlns="http://www.w3.org/2000/svg" class="mb-3" width="48" height="48" fill="#fd5631"><path d="M13.585 21.456a10.416 10.416 0 1 0 20.832 0c0-5.76-4.656-10.464-10.416-10.464s-10.416 4.704-10.416 10.464zm18.096 0c0 4.224-3.456 7.68-7.68 7.68s-7.68-3.456-7.68-7.68 3.456-7.68 7.68-7.68 7.68 3.408 7.68 7.68zm-10.225-.96a1.36 1.36 0 0 0-1.92 0 1.36 1.36 0 0 0 0 1.92l2.352 2.352c.24.24.624.384.96.384s.72-.144.96-.384l4.512-4.512a1.36 1.36 0 0 0 0-1.92 1.36 1.36 0 0 0-1.92 0l-3.552 3.552-1.392-1.392zM42 10.512C29.568 5.568 24.96 1.584 24.912 1.536c-.528-.48-1.296-.48-1.824 0C23.04 1.584 18.48 5.52 6 10.512c-.528.192-.864.72-.864 1.248 0 24.576 17.424 34.464 18.192 34.848.192.096.432.192.672.192a1.2 1.2 0 0 0 .672-.192c.72-.384 18.192-10.272 18.192-34.848 0-.528-.336-1.056-.864-1.248zM24 43.824C20.928 41.808 8.304 32.352 7.872 12.72 17.328 8.88 22.128 5.664 24 4.32c1.872 1.392 6.672 4.56 16.128 8.4C39.744 32.352 27.072 41.808 24 43.824z"></path></svg>