<svg xmlns="http://www.w3.org/2000/svg" class="mb-3" width="48" height="48" fill="#fd5631"><path d="M39.976 40.416l-5.667-26.529c-.098-.44-.391-.831-.782-1.026L20.531 6.217l-.928-4.202c-.195-.831-.977-1.368-1.808-1.173s-1.368.977-1.172 1.808l.879 4.202-9.136 11.335c-.293.342-.391.831-.293 1.27l5.618 26.529c.195.831.977 1.368 1.808 1.173l23.304-4.934a1.59 1.59 0 0 0 1.173-1.808zm-23.597 3.469L11.2 19.554l7.182-8.843.635 2.931c.195.831.977 1.368 1.808 1.172s1.368-.977 1.172-1.808l-.635-2.931 10.162 5.179 5.179 24.33-20.324 4.299zm7.963-17.149l-2.052.44a1.54 1.54 0 0 1-1.857-1.27c-.146-.831.44-1.612 1.27-1.759l2.052-.44c.684-.146 1.368.195 1.71.782.098.244.342.342.586.293l1.954-.44c.293-.049.489-.391.391-.684-.733-2.003-2.736-3.225-4.837-3.029l-.391-1.954c-.049-.293-.342-.489-.635-.391l-1.954.391c-.293.049-.489.342-.391.635l.391 1.954c-2.247.733-3.664 3.029-3.127 5.374.586 2.492 3.078 4.006 5.521 3.469l2.003-.44c.831-.195 1.661.293 1.857 1.124.244.879-.293 1.71-1.172 1.905l-2.101.44c-.684.147-1.368-.195-1.71-.782-.098-.195-.342-.342-.586-.293l-1.954.44c-.342.049-.488.391-.391.684.733 2.003 2.736 3.224 4.837 3.029l.391 1.905c.049.293.342.489.635.391l1.954-.391c.293-.049.489-.342.391-.635l-.391-1.905c2.247-.733 3.664-3.029 3.127-5.374-.538-2.492-3.029-4.006-5.521-3.469z"></path></svg>