<svg xmlns="http://www.w3.org/2000/svg" class="mb-3" width="48" height="48" fill="none"><path fill-rule="evenodd" d="M5.493 32.863a6.53 6.53 0 0 1-5.446-6.441v-3.981a6.53 6.53 0 0 1 1.913-4.619c1.225-1.225 2.887-1.913 4.619-1.913h.435C7.709 7.137 15.048.234 24 .234s16.291 6.903 16.986 15.675h.435a6.53 6.53 0 0 1 6.532 6.532v3.981a6.53 6.53 0 0 1-6.532 6.532h-1.928a1.45 1.45 0 0 1-1.447-1.448V17.274A14.05 14.05 0 0 0 24 3.228 14.05 14.05 0 0 0 9.954 17.274v14.232a1.45 1.45 0 0 1-1.447 1.448h0a8.87 8.87 0 0 0 8.821 7.935h.199c.248-.839.702-1.611 1.332-2.241.991-.991 2.336-1.548 3.738-1.548h2.807a5.29 5.29 0 0 1 5.287 5.286 5.29 5.29 0 0 1-5.287 5.287h-2.807a5.29 5.29 0 0 1-5.071-3.789h-.198c-3.147 0-6.164-1.25-8.39-3.475-2.025-2.025-3.242-4.707-3.445-7.545zm22.203 9.523c0-1.266-1.026-2.292-2.292-2.292h-2.807a2.29 2.29 0 0 0-2.292 2.292c0 1.266 1.026 2.292 2.292 2.292h2.807c1.266 0 2.292-1.026 2.292-2.292zM6.96 18.903h-.381a3.54 3.54 0 0 0-3.538 3.538v3.981a3.54 3.54 0 0 0 3.538 3.538h.381V18.903zm34.08 0V29.96h.381a3.54 3.54 0 0 0 3.538-3.538v-3.981a3.54 3.54 0 0 0-3.538-3.538h-.381z" fill="#fd5631"></path></svg>