<?xml version="1.0" standalone="no"?>
<!DOCTYPE svg PUBLIC "-//W3C//DTD SVG 20010904//EN" "http://www.w3.org/TR/2001/REC-SVG-20010904/DTD/svg10.dtd">
<svg version="1.0" xmlns="http://www.w3.org/2000/svg" width="512.000000pt" height="512.000000pt"
    viewBox="0 0 512.000000 512.000000" preserveAspectRatio="xMidYMid meet">

    <g transform="translate(0.000000,512.000000) scale(0.100000,-0.100000)" fill="#000000" stroke="none">
        <path d="M2412 4567 c-96 -97 -112 -117 -112 -145 0 -74 81 -97 145 -41 l35
            31 0 -372 c0 -379 2 -398 39 -427 35 -27 86 -11 109 34 9 15 12 130 12 393 l0
            371 37 -30 c66 -55 143 -32 143 42 0 28 -15 47 -113 145 -151 150 -144 150
            -295 -1z"
            fill="#FF5757" />
        <path d="M1055 4060 c-15 -16 -17 -39 -17 -162 0 -194 -1 -185 24 -208 30 -27
            73 -26 103 5 20 19 25 34 25 77 l0 53 274 -274 c242 -242 278 -274 306 -274
            41 0 73 32 73 73 0 28 -32 64 -274 306 l-274 274 53 0 c43 0 58 5 77 25 31 30
            33 77 5 105 -18 18 -33 20 -188 20 -155 0 -170 -2 -187 -20z" />
        <path d="M3690 4058 c-27 -30 -26 -73 5 -103 19 -20 34 -25 77 -25 l53 0 -278
            -278 c-201 -201 -277 -284 -277 -301 0 -12 13 -36 29 -52 16 -16 40 -29 52
            -29 17 0 100 76 301 277 l278 278 0 -53 c0 -43 5 -58 25 -77 30 -31 77 -33
            105 -5 18 18 20 33 20 188 0 151 -2 171 -18 185 -16 14 -44 17 -185 17 -158 0
            -167 -1 -187 -22z" />
        <path d="M2492 3188 c-332 -38 -562 -295 -562 -628 0 -360 273 -631 635 -631
            175 0 313 58 440 186 129 129 186 265 186 445 0 180 -57 316 -186 445 -143
            143 -319 206 -513 183z m240 -181 c131 -47 234 -152 280 -284 32 -93 32 -242
            1 -325 -114 -305 -483 -415 -741 -220 -133 100 -201 248 -189 411 16 230 169
            401 397 445 56 11 187 -3 252 -27z"
            fill="#FF5757" />
        <path d="M552 2707 c-151 -151 -151 -145 1 -295 97 -95 119 -112 145 -112 73
            0 95 77 41 143 l-30 37 376 0 377 0 29 29 c16 16 29 36 29 45 0 28 -22 64 -47
            75 -16 7 -144 11 -395 11 l-370 0 31 35 c56 64 33 145 -42 145 -28 0 -47 -15
            -145 -113z"
            fill="#FF5757" />
        <path d="M4370 2800 c-30 -30 -26 -78 11 -123 l30 -37 -376 0 -377 0 -29 -29
            c-37 -37 -37 -65 0 -102 l29 -29 377 0 377 0 -31 -35 c-56 -64 -33 -145 42
            -145 28 0 47 15 145 113 151 151 151 145 -1 295 -97 95 -119 112 -145 112 -19
            0 -40 -8 -52 -20z"
            fill="#FF5757" />
        <path d="M1468 1573 l-278 -278 0 53 c0 43 -5 58 -25 77 -30 31 -73 32 -103 5
            -25 -23 -24 -16 -24 -208 0 -193 -13 -182 204 -182 155 0 170 2 188 20 28 28
            26 75 -5 105 -19 20 -34 25 -77 25 l-53 0 278 278 c201 201 277 284 277 301 0
            12 -13 36 -29 52 -16 16 -40 29 -52 29 -17 0 -100 -76 -301 -277z" />
        <path d="M3325 1840 c-31 -12 -48 -38 -48 -71 0 -27 36 -67 274 -305 l274
            -274 -53 0 c-43 0 -58 -5 -77 -25 -31 -30 -33 -77 -5 -105 18 -18 33 -20 188
            -20 151 0 171 2 185 18 14 16 17 44 17 185 0 158 -1 167 -22 187 -30 27 -73
            26 -103 -5 -20 -19 -25 -34 -25 -77 l0 -53 -272 272 c-150 149 -282 273 -293
            276 -11 3 -29 2 -40 -3z" />
        <path d="M2519 1507 c-37 -29 -39 -48 -39 -427 l0 -372 -35 31 c-64 56 -145
            33 -145 -42 0 -28 15 -47 113 -145 151 -150 144 -150 295 1 96 97 112 117 112
            145 0 73 -77 95 -143 41 l-37 -30 0 371 c0 379 -2 398 -39 427 -20 16 -62 16
            -82 0z"
            fill="#FF5757" />
    </g>
</svg>