<?xml version="1.0" standalone="no"?>
<!DOCTYPE svg PUBLIC "-//W3C//DTD SVG 20010904//EN" "http://www.w3.org/TR/2001/REC-SVG-20010904/DTD/svg10.dtd">
<svg version="1.0" xmlns="http://www.w3.org/2000/svg" width="1024.000000pt" height="1024.000000pt"
    viewBox="0 0 1024.000000 1024.000000" preserveAspectRatio="xMidYMid meet">

    <g transform="translate(0.000000,1024.000000) scale(0.100000,-0.100000)" fill="#000000" stroke="none">
        <path d="M7885 8811 c-56 -26 -914 -840 -937 -889 -32 -68 -17 -136 41 -185
            41 -34 23 -30 359 -76 156 -21 286 -41 289 -44 7 -8 -55 -300 -118 -552 -235
            -943 -582 -1768 -1019 -2420 -174 -260 -343 -468 -560 -689 -650 -664 -1405
            -1028 -2350 -1133 -115 -13 -237 -17 -470 -17 -338 0 -500 12 -808 60 -92 14
            -183 28 -202 31 l-36 5 -28 -152 c-15 -83 -26 -153 -25 -155 6 -5 166 -33 314
            -54 474 -68 969 -75 1395 -20 922 117 1702 492 2359 1134 384 374 671 754 958
            1270 382 683 700 1579 883 2485 17 85 34 158 38 161 4 3 147 -14 317 -37 252
            -35 317 -41 349 -33 79 21 131 110 108 187 -14 46 -641 1043 -685 1090 -28 29
            -79 52 -117 52 -8 0 -33 -9 -55 -19z m209 -672 c95 -151 169 -276 165 -277
            -12 -5 -769 97 -793 106 -16 7 20 45 215 229 128 122 235 221 236 219 2 -1 81
            -126 177 -277z"
            fill="#FF5757" />
        <path d="M3402 8089 c-171 -29 -319 -107 -453 -239 -127 -125 -190 -236 -236
            -410 -14 -56 -17 -137 -20 -561 l-4 -497 -72 -4 c-54 -2 -80 -9 -103 -25 -66
            -47 -64 -16 -64 -800 0 -674 1 -714 20 -787 46 -180 170 -335 330 -415 147
            -72 149 -72 879 -69 l646 3 73 27 c200 73 347 223 414 423 l23 70 3 724 c3
            710 2 724 -18 765 -13 27 -34 50 -59 64 l-39 22 -856 0 -857 0 3 493 3 492 24
            60 c68 171 205 296 372 340 80 22 397 20 470 -1 94 -28 171 -74 240 -143 114
            -115 159 -240 159 -448 l0 -113 155 0 155 0 0 153 c0 118 -5 171 -20 237 -77
            320 -343 573 -669 634 -92 18 -405 21 -499 5z m1116 -2636 l-3 -618 -24 -50
            c-32 -63 -93 -124 -156 -156 l-50 -24 -627 -3 c-611 -2 -627 -2 -681 18 -77
            29 -140 87 -179 168 l-33 67 -3 594 c-2 326 -1 600 2 607 5 12 148 14 881 14
            l876 0 -3 -617z" />
        <path d="M3580 5581 c-74 -24 -138 -80 -164 -143 -23 -54 -21 -152 5 -204 48
            -100 163 -158 269 -136 281 59 256 469 -29 488 -31 2 -67 0 -81 -5z"
            fill="#FF5757" />
        <path d="M7512 4932 c-10 -10 -47 -72 -81 -138 -136 -255 -356 -599 -533 -832
            l-78 -104 2 -1255 3 -1255 24 -19 c22 -18 44 -19 385 -19 l363 0 21 23 22 23
            0 1777 c0 1764 0 1777 -20 1797 -26 26 -83 27 -108 2z m-22 -1922 l0 -1540
            -255 0 -255 0 0 1169 0 1169 81 108 c101 135 274 395 354 531 33 57 63 103 68
            103 4 0 7 -693 7 -1540z" />
        <path d="M6178 3187 c-138 -120 -293 -238 -452 -345 -87 -59 -165 -116 -172
            -128 -12 -18 -14 -131 -12 -693 l3 -673 24 -19 c22 -18 44 -19 385 -19 l363 0
            21 23 22 23 0 927 c0 914 0 927 -20 947 -39 39 -81 27 -162 -43z m32 -952 l0
            -765 -255 0 -255 0 0 583 0 582 62 40 c98 63 255 176 352 254 49 39 91 71 93
            71 2 0 3 -344 3 -765z" />
        <path d="M4835 2380 c-129 -51 -357 -123 -502 -160 -74 -19 -73 -15 -73 -455
            0 -405 3 -432 45 -449 9 -3 177 -6 374 -6 346 0 358 1 379 20 l22 21 0 524 0
            524 -26 20 c-15 12 -36 21 -48 20 -11 0 -88 -27 -171 -59z m95 -525 l0 -385
            -255 0 -255 0 0 305 0 304 73 21 c101 29 379 120 397 131 40 23 40 24 40 -376z" />
        <path d="M3600 2099 c-36 -4 -175 -10 -310 -14 -138 -4 -255 -11 -267 -17 -39
            -19 -43 -57 -43 -373 0 -311 5 -356 40 -375 25 -14 725 -13 750 0 34 18 40 75
            40 390 0 180 -4 320 -10 342 -17 59 -43 66 -200 47z m50 -395 l0 -234 -255 0
            -255 0 0 224 0 224 168 7 c92 4 203 10 247 14 44 4 83 5 88 3 4 -2 7 -109 7
            -238z" />
    </g>
</svg>